<svg width="16" height="16" viewBox="0 0 16 16" fill="none" xmlns="http://www.w3.org/2000/svg">
<g clip-path="url(#clip0_501_718)">
<path d="M5 8.18182L7.27273 10L11 6" stroke="#DBF617" stroke-width="2" stroke-miterlimit="10" stroke-linecap="round"/>
<path d="M8 2C11.3 2 14 4.7 14 8C14 11.3 11.3 14 8 14C4.7 14 2 11.3 2 8C2 4.7 4.7 2 8 2ZM8 0.5C3.9 0.5 0.5 3.9 0.5 8C0.5 12.1 3.9 15.5 8 15.5C12.1 15.5 15.5 12.1 15.5 8C15.5 3.9 12.1 0.5 8 0.5Z" fill="#DBF617"/>
</g>
<defs>
<clipPath id="clip0_501_718">
<rect width="16" height="16" fill="white"/>
</clipPath>
</defs>
</svg>
