<svg width="74" height="19" viewBox="0 0 74 19" fill="none" xmlns="http://www.w3.org/2000/svg">
<path d="M8.54544 18.3637C6.90908 18.3637 5.49999 17.9773 4.31817 17.2046C3.13635 16.4319 2.22726 15.3675 1.5909 14.0114C0.954534 12.6554 0.636353 11.1061 0.636353 9.36369C0.636353 7.59096 0.96211 6.02657 1.61363 4.67051C2.27272 3.30687 3.18938 2.24248 4.36363 1.47733C5.54544 0.704601 6.92423 0.318237 8.49999 0.318237C9.72726 0.318237 10.8333 0.54551 11.8182 1.00006C12.803 1.4546 13.6098 2.09096 14.2386 2.90915C14.8674 3.72733 15.2576 4.68187 15.4091 5.77278H12.7273C12.5227 4.97733 12.0682 4.27278 11.3636 3.65915C10.6667 3.03793 9.72726 2.72733 8.54544 2.72733C7.49999 2.72733 6.58332 3.00005 5.79544 3.54551C5.01514 4.08339 4.40529 4.84475 3.9659 5.8296C3.53408 6.80687 3.31817 7.9546 3.31817 9.27278C3.31817 10.6213 3.53029 11.7955 3.95453 12.7955C4.38635 13.7955 4.99241 14.572 5.77272 15.1251C6.5606 15.6781 7.48484 15.9546 8.54544 15.9546C9.24241 15.9546 9.87499 15.8334 10.4432 15.591C11.0114 15.3485 11.4924 15.0001 11.8864 14.5455C12.2803 14.091 12.5606 13.5455 12.7273 12.9091H15.4091C15.2576 13.9395 14.8826 14.8675 14.2841 15.6932C13.6932 16.5114 12.9091 17.1629 11.9318 17.6478C10.9621 18.1251 9.83332 18.3637 8.54544 18.3637Z" fill="#3FB76F"/>
<path d="M23.1859 18.4091C22.0798 18.4091 21.076 18.2008 20.1745 17.7841C19.273 17.3599 18.5571 16.7501 18.0268 15.9546C17.4965 15.1516 17.2314 14.1819 17.2314 13.0455C17.2314 12.0455 17.4283 11.2349 17.8223 10.6137C18.2162 9.9849 18.7427 9.49248 19.4018 9.13642C20.0609 8.78036 20.7882 8.51521 21.5836 8.34096C22.3867 8.15915 23.1935 8.01521 24.0041 7.90915C25.0647 7.77278 25.9245 7.67051 26.5836 7.60233C27.2503 7.52657 27.7351 7.40157 28.0382 7.22733C28.3488 7.05309 28.5041 6.75005 28.5041 6.31824V6.22733C28.5041 5.10612 28.1973 4.2349 27.5836 3.61369C26.9776 2.99248 26.0571 2.68187 24.8223 2.68187C23.542 2.68187 22.5382 2.96218 21.8109 3.52278C21.0836 4.08339 20.5723 4.68187 20.2768 5.31824L17.7314 4.40915C18.1859 3.34854 18.792 2.52278 19.5495 1.93187C20.3147 1.33339 21.148 0.916721 22.0495 0.681873C22.9586 0.439449 23.8526 0.318237 24.7314 0.318237C25.292 0.318237 25.9359 0.386419 26.6632 0.522781C27.398 0.651569 28.1064 0.920509 28.7882 1.3296C29.4776 1.73869 30.0495 2.35612 30.5041 3.18187C30.9586 4.00763 31.1859 5.11369 31.1859 6.50006V18.0001H28.5041V15.6364H28.3677C28.1859 16.0152 27.8829 16.4205 27.4586 16.8523C27.0344 17.2841 26.47 17.6516 25.7654 17.9546C25.0609 18.2576 24.201 18.4091 23.1859 18.4091ZM23.595 16.0001C24.6556 16.0001 25.5495 15.7917 26.2768 15.3751C27.0117 14.9584 27.5647 14.4205 27.9359 13.7614C28.3147 13.1023 28.5041 12.4091 28.5041 11.6819V9.22733C28.3904 9.36369 28.1404 9.48869 27.7541 9.60233C27.3753 9.70839 26.9359 9.80309 26.4359 9.88642C25.9435 9.96218 25.4624 10.0304 24.9927 10.091C24.5306 10.144 24.1556 10.1894 23.8677 10.2273C23.1707 10.3182 22.5192 10.466 21.9132 10.6705C21.3147 10.8675 20.8298 11.1667 20.4586 11.5682C20.095 11.9622 19.9132 12.5001 19.9132 13.1819C19.9132 14.1137 20.2579 14.8182 20.9473 15.2955C21.6442 15.7652 22.5268 16.0001 23.595 16.0001Z" fill="#3FB76F"/>
<path d="M37.4826 7.50006V18.0001H34.8008V0.545509H37.3917V3.27278H37.619C38.0281 2.38642 38.6493 1.6743 39.4826 1.13642C40.3159 0.590965 41.3917 0.318237 42.7099 0.318237C43.8917 0.318237 44.9258 0.560661 45.8121 1.04551C46.6985 1.52278 47.3879 2.25006 47.8803 3.22733C48.3728 4.19702 48.619 5.4243 48.619 6.90915V18.0001H45.9371V7.09096C45.9371 5.71975 45.5811 4.65157 44.869 3.88642C44.1568 3.11369 43.1796 2.72733 41.9371 2.72733C41.0811 2.72733 40.3159 2.91293 39.6417 3.28415C38.975 3.65536 38.4485 4.19702 38.0621 4.90915C37.6758 5.62127 37.4826 6.4849 37.4826 7.50006Z" fill="#3FB76F"/>
<path d="M59.5577 18.3637C57.8759 18.3637 56.4251 17.9925 55.2054 17.2501C53.9933 16.5001 53.0577 15.4546 52.3986 14.1137C51.7471 12.7652 51.4214 11.197 51.4214 9.40915C51.4214 7.62127 51.7471 6.04551 52.3986 4.68187C53.0577 3.31066 53.9744 2.24248 55.1486 1.47733C56.3304 0.704601 57.7092 0.318237 59.285 0.318237C60.1941 0.318237 61.0918 0.469752 61.9782 0.772781C62.8645 1.07581 63.6714 1.56824 64.3986 2.25006C65.1259 2.9243 65.7055 3.81824 66.1373 4.93187C66.5691 6.04551 66.785 7.41672 66.785 9.04551V10.1819H53.3304V7.86369H64.0577C64.0577 6.87884 63.8607 6.00005 63.4668 5.22733C63.0804 4.4546 62.5274 3.84475 61.8077 3.39778C61.0956 2.95081 60.2547 2.72733 59.285 2.72733C58.2168 2.72733 57.2926 2.99248 56.5123 3.52278C55.7395 4.04551 55.1448 4.72733 54.7282 5.56824C54.3115 6.40914 54.1032 7.31066 54.1032 8.27278V9.81824C54.1032 11.1364 54.3304 12.2538 54.785 13.1705C55.2471 14.0796 55.8873 14.7728 56.7054 15.2501C57.5236 15.7198 58.4744 15.9546 59.5577 15.9546C60.2623 15.9546 60.8986 15.8561 61.4668 15.6591C62.0426 15.4546 62.5388 15.1516 62.9554 14.7501C63.3721 14.341 63.6941 13.8334 63.9214 13.2273L66.5123 13.9546C66.2395 14.8334 65.7812 15.6061 65.1373 16.2728C64.4933 16.9319 63.6979 17.447 62.7509 17.8182C61.8039 18.1819 60.7395 18.3637 59.5577 18.3637Z" fill="#3FB76F"/>
<path d="M71.5391 18.1819C70.9785 18.1819 70.4974 17.9811 70.0959 17.5796C69.6944 17.1781 69.4936 16.697 69.4936 16.1364C69.4936 15.5758 69.6944 15.0948 70.0959 14.6932C70.4974 14.2917 70.9785 14.091 71.5391 14.091C72.0997 14.091 72.5807 14.2917 72.9823 14.6932C73.3838 15.0948 73.5845 15.5758 73.5845 16.1364C73.5845 16.5076 73.4898 16.8485 73.3004 17.1591C73.1186 17.4698 72.8724 17.7198 72.5618 17.9091C72.2588 18.091 71.9179 18.1819 71.5391 18.1819Z" fill="#3FB76F"/>
</svg>
